<svg width="96" height="49" viewBox="0 0 96 49" fill="none" xmlns="http://www.w3.org/2000/svg">
<path d="M5.28 21.89C5.28 22.61 5.41 23.22 5.67 23.72C5.93 24.22 6.27 24.63 6.69 24.95C7.13 25.25 7.64 25.48 8.22 25.64C8.8 25.78 9.4 25.85 10.02 25.85C10.44 25.85 10.89 25.82 11.37 25.76C11.85 25.68 12.3 25.54 12.72 25.34C13.14 25.14 13.49 24.87 13.77 24.53C14.05 24.17 14.19 23.72 14.19 23.18C14.19 22.6 14 22.13 13.62 21.77C13.26 21.41 12.78 21.11 12.18 20.87C11.58 20.63 10.9 20.42 10.14 20.24C9.38 20.06 8.61 19.86 7.83 19.64C7.03 19.44 6.25 19.2 5.49 18.92C4.73 18.62 4.05 18.24 3.45 17.78C2.85 17.32 2.36 16.75 1.98 16.07C1.62 15.37 1.44 14.53 1.44 13.55C1.44 12.45 1.67 11.5 2.13 10.7C2.61 9.88 3.23 9.2 3.99 8.66C4.75 8.12 5.61 7.72 6.57 7.46C7.53 7.2 8.49 7.07 9.45 7.07C10.57 7.07 11.64 7.2 12.66 7.46C13.7 7.7 14.62 8.1 15.42 8.66C16.22 9.22 16.85 9.94 17.31 10.82C17.79 11.68 18.03 12.73 18.03 13.97H13.47C13.43 13.33 13.29 12.8 13.05 12.38C12.83 11.96 12.53 11.63 12.15 11.39C11.77 11.15 11.33 10.98 10.83 10.88C10.35 10.78 9.82 10.73 9.24 10.73C8.86 10.73 8.48 10.77 8.1 10.85C7.72 10.93 7.37 11.07 7.05 11.27C6.75 11.47 6.5 11.72 6.3 12.02C6.1 12.32 6 12.7 6 13.16C6 13.58 6.08 13.92 6.24 14.18C6.4 14.44 6.71 14.68 7.17 14.9C7.65 15.12 8.3 15.34 9.12 15.56C9.96 15.78 11.05 16.06 12.39 16.4C12.79 16.48 13.34 16.63 14.04 16.85C14.76 17.05 15.47 17.38 16.17 17.84C16.87 18.3 17.47 18.92 17.97 19.7C18.49 20.46 18.75 21.44 18.75 22.64C18.75 23.62 18.56 24.53 18.18 25.37C17.8 26.21 17.23 26.94 16.47 27.56C15.73 28.16 14.8 28.63 13.68 28.97C12.58 29.31 11.3 29.48 9.84 29.48C8.66 29.48 7.51 29.33 6.39 29.03C5.29 28.75 4.31 28.3 3.45 27.68C2.61 27.06 1.94 26.27 1.44 25.31C0.94 24.35 0.7 23.21 0.72 21.89H5.28ZM26.2924 11.54H19.8724V7.58H37.4224V11.54H31.0024V29H26.2924V11.54ZM42.5384 20.72H48.0884L45.3884 12.86H45.3284L42.5384 20.72ZM42.9884 7.58H47.8184L55.8284 29H50.9384L49.3184 24.23H41.3084L39.6284 29H34.8884L42.9884 7.58ZM62.3855 17.27H67.5455C68.6255 17.27 69.4355 17.03 69.9755 16.55C70.5155 16.07 70.7855 15.29 70.7855 14.21C70.7855 13.17 70.5155 12.42 69.9755 11.96C69.4355 11.48 68.6255 11.24 67.5455 11.24H62.3855V17.27ZM57.6755 7.58H69.2255C70.1855 7.58 71.0455 7.74 71.8055 8.06C72.5855 8.36 73.2455 8.78 73.7855 9.32C74.3455 9.86 74.7655 10.49 75.0455 11.21C75.3455 11.91 75.4955 12.67 75.4955 13.49C75.4955 14.75 75.2255 15.84 74.6855 16.76C74.1655 17.68 73.3055 18.38 72.1055 18.86V18.92C72.6855 19.08 73.1655 19.33 73.5455 19.67C73.9255 19.99 74.2355 20.38 74.4755 20.84C74.7155 21.28 74.8855 21.77 74.9855 22.31C75.1055 22.85 75.1855 23.39 75.2255 23.93C75.2455 24.27 75.2655 24.67 75.2855 25.13C75.3055 25.59 75.3355 26.06 75.3755 26.54C75.4355 27.02 75.5155 27.48 75.6155 27.92C75.7355 28.34 75.9055 28.7 76.1255 29H71.4155C71.1555 28.32 70.9955 27.51 70.9355 26.57C70.8755 25.63 70.7855 24.73 70.6655 23.87C70.5055 22.75 70.1655 21.93 69.6455 21.41C69.1255 20.89 68.2755 20.63 67.0955 20.63H62.3855V29H57.6755V7.58ZM83.5385 11.54H77.1185V7.58H94.6685V11.54H88.2485V29H83.5385V11.54Z" fill="white"/>
<path d="M5.06375 35.576L8.85575 45.592L12.7918 35.576H14.3918V47H13.3038V37.128H13.2718L9.36775 47H8.34375L4.58375 37.128H4.55175V47H3.46375V35.576H5.06375ZM18.2524 42.52H22.7484L20.5404 36.664L18.2524 42.52ZM19.9804 35.576H21.1964L25.6764 47H24.5084L23.1164 43.448H17.9164L16.5404 47H15.3884L19.9804 35.576ZM27.8025 41H31.8665C32.1972 41 32.5118 40.952 32.8105 40.856C33.1092 40.7493 33.3705 40.6 33.5945 40.408C33.8185 40.216 33.9945 39.9867 34.1225 39.72C34.2612 39.4427 34.3305 39.128 34.3305 38.776C34.3305 38.072 34.1278 37.5173 33.7225 37.112C33.3172 36.7067 32.6985 36.504 31.8665 36.504H27.8025V41ZM26.7145 35.576H31.9465C32.4158 35.576 32.8585 35.6347 33.2745 35.752C33.7012 35.8693 34.0692 36.0507 34.3785 36.296C34.6985 36.5307 34.9492 36.84 35.1305 37.224C35.3225 37.5973 35.4185 38.04 35.4185 38.552C35.4185 39.2773 35.2318 39.9067 34.8585 40.44C34.4852 40.9733 33.9305 41.3147 33.1945 41.464V41.496C33.5678 41.5493 33.8772 41.6507 34.1225 41.8C34.3678 41.9387 34.5652 42.12 34.7145 42.344C34.8745 42.568 34.9865 42.8293 35.0505 43.128C35.1252 43.416 35.1732 43.7307 35.1945 44.072C35.2052 44.264 35.2158 44.4987 35.2265 44.776C35.2372 45.0533 35.2585 45.336 35.2905 45.624C35.3225 45.9013 35.3705 46.168 35.4345 46.424C35.5092 46.6693 35.6052 46.8613 35.7225 47H34.5225C34.4585 46.8933 34.4052 46.7653 34.3625 46.616C34.3305 46.456 34.3038 46.296 34.2825 46.136C34.2718 45.9653 34.2612 45.8 34.2505 45.64C34.2398 45.48 34.2292 45.3413 34.2185 45.224C34.1972 44.8187 34.1598 44.4187 34.1065 44.024C34.0638 43.6187 33.9625 43.2613 33.8025 42.952C33.6532 42.632 33.4292 42.376 33.1305 42.184C32.8425 41.992 32.4425 41.9067 31.9305 41.928H27.8025V47H26.7145V35.576ZM37.3864 35.576H38.4744V41.72L45.1144 35.576H46.5864L41.4824 40.296L46.8264 47H45.4184L40.6664 41.048L38.4744 43.08V47H37.3864V35.576ZM47.7614 35.576H55.6494V36.504H48.8494V40.632H55.2174V41.56H48.8494V46.072H55.7294V47H47.7614V35.576ZM56.0297 35.576H65.0698V36.504H61.0858V47H59.9978V36.504H56.0297V35.576ZM66.2164 35.576H67.3044V47H66.2164V35.576ZM69.6673 35.576H70.8832L77.5393 45.24H77.5712V35.576H78.6593V47H77.4433L70.7873 37.336H70.7553V47H69.6673V35.576ZM90.7089 47H89.9249L89.7809 44.92H89.7489C89.5569 45.3253 89.3169 45.6773 89.0289 45.976C88.7515 46.264 88.4422 46.504 88.1009 46.696C87.7595 46.8773 87.3915 47.0107 86.9969 47.096C86.6129 47.1813 86.2129 47.224 85.7969 47.224C84.9009 47.224 84.1115 47.064 83.4289 46.744C82.7569 46.4133 82.1969 45.976 81.7489 45.432C81.3009 44.888 80.9649 44.2587 80.7409 43.544C80.5169 42.8293 80.4049 42.0773 80.4049 41.288C80.4049 40.4987 80.5169 39.7467 80.7409 39.032C80.9649 38.3173 81.3009 37.688 81.7489 37.144C82.1969 36.5893 82.7569 36.152 83.4289 35.832C84.1115 35.5013 84.9009 35.336 85.7969 35.336C86.3942 35.336 86.9595 35.416 87.4929 35.576C88.0262 35.736 88.5009 35.976 88.9169 36.296C89.3329 36.616 89.6849 37.0107 89.9729 37.48C90.2609 37.9493 90.4582 38.4987 90.5649 39.128H89.4769C89.4449 38.7973 89.3329 38.4667 89.1409 38.136C88.9595 37.7947 88.7089 37.4853 88.3889 37.208C88.0795 36.9307 87.7062 36.7067 87.2689 36.536C86.8315 36.3547 86.3409 36.264 85.7969 36.264C85.0395 36.264 84.3889 36.408 83.8449 36.696C83.3009 36.984 82.8529 37.368 82.5009 37.848C82.1595 38.3173 81.9035 38.8507 81.7329 39.448C81.5729 40.0453 81.4929 40.6587 81.4929 41.288C81.4929 41.9067 81.5729 42.52 81.7329 43.128C81.9035 43.7253 82.1595 44.264 82.5009 44.744C82.8529 45.2133 83.3009 45.592 83.8449 45.88C84.3889 46.168 85.0395 46.312 85.7969 46.312C86.4262 46.312 86.9862 46.2107 87.4769 46.008C87.9782 45.7947 88.3995 45.5013 88.7409 45.128C89.0822 44.7547 89.3382 44.312 89.5089 43.8C89.6795 43.288 89.7595 42.728 89.7489 42.12H85.8609V41.192H90.7089V47Z" fill="white"/>
</svg>
